<?xml version="1.0" encoding="UTF-8"?><svg xmlns="http://www.w3.org/2000/svg" xmlns:xlink="http://www.w3.org/1999/xlink" fill-opacity="1" color-rendering="auto" color-interpolation="auto" text-rendering="auto" stroke="black" stroke-linecap="square" width="751" stroke-miterlimit="10" shape-rendering="auto" stroke-opacity="1" fill="black" stroke-dasharray="none" font-weight="normal" stroke-width="1" height="585" font-family="'Dialog'" font-style="normal" stroke-linejoin="miter" font-size="12px" stroke-dashoffset="0" image-rendering="auto">
  <!--Generated by ySVG 2.5-->
  <defs id="genericDefs"/>
  <g>
    <defs id="defs1">
      <linearGradient x1="514.5" gradientUnits="userSpaceOnUse" x2="627.5" y1="-52" y2="-12" id="linearGradient1" spreadMethod="reflect">
        <stop stop-opacity="1" stop-color="rgb(232,238,247)" offset="0%"/>
        <stop stop-opacity="1" stop-color="rgb(183,201,227)" offset="100%"/>
      </linearGradient>
      <linearGradient x1="325.5" gradientUnits="userSpaceOnUse" x2="385.5" y1="181.25" y2="221.25" id="linearGradient2" spreadMethod="reflect">
        <stop stop-opacity="1" stop-color="rgb(232,238,247)" offset="0%"/>
        <stop stop-opacity="1" stop-color="rgb(183,201,227)" offset="100%"/>
      </linearGradient>
      <linearGradient x1="531" gradientUnits="userSpaceOnUse" x2="611" y1="103" y2="143" id="linearGradient3" spreadMethod="reflect">
        <stop stop-opacity="1" stop-color="rgb(232,238,247)" offset="0%"/>
        <stop stop-opacity="1" stop-color="rgb(183,201,227)" offset="100%"/>
      </linearGradient>
      <linearGradient x1="95.5" gradientUnits="userSpaceOnUse" x2="208.5" y1="62" y2="112" id="linearGradient4" spreadMethod="reflect">
        <stop stop-opacity="1" stop-color="rgb(232,238,247)" offset="0%"/>
        <stop stop-opacity="1" stop-color="rgb(183,201,227)" offset="100%"/>
      </linearGradient>
      <linearGradient x1="-92.5" gradientUnits="userSpaceOnUse" x2="-12.5" y1="67" y2="107" id="linearGradient5" spreadMethod="reflect">
        <stop stop-opacity="1" stop-color="rgb(232,238,247)" offset="0%"/>
        <stop stop-opacity="1" stop-color="rgb(183,201,227)" offset="100%"/>
      </linearGradient>
      <linearGradient x1="-92.5" gradientUnits="userSpaceOnUse" x2="-12.5" y1="-57" y2="-17" id="linearGradient6" spreadMethod="reflect">
        <stop stop-opacity="1" stop-color="rgb(232,238,247)" offset="0%"/>
        <stop stop-opacity="1" stop-color="rgb(183,201,227)" offset="100%"/>
      </linearGradient>
      <linearGradient x1="514.5" gradientUnits="userSpaceOnUse" x2="627.5" y1="-166" y2="-116" id="linearGradient7" spreadMethod="reflect">
        <stop stop-opacity="1" stop-color="rgb(232,238,247)" offset="0%"/>
        <stop stop-opacity="1" stop-color="rgb(183,201,227)" offset="100%"/>
      </linearGradient>
      <linearGradient x1="299" gradientUnits="userSpaceOnUse" x2="412" y1="-161" y2="-121" id="linearGradient8" spreadMethod="reflect">
        <stop stop-opacity="1" stop-color="rgb(232,238,247)" offset="0%"/>
        <stop stop-opacity="1" stop-color="rgb(183,201,227)" offset="100%"/>
      </linearGradient>
      <linearGradient x1="299" gradientUnits="userSpaceOnUse" x2="412" y1="-62" y2="-12" id="linearGradient9" spreadMethod="reflect">
        <stop stop-opacity="1" stop-color="rgb(232,238,247)" offset="0%"/>
        <stop stop-opacity="1" stop-color="rgb(183,201,227)" offset="100%"/>
      </linearGradient>
      <linearGradient x1="112" gradientUnits="userSpaceOnUse" x2="225" y1="-161" y2="-121" id="linearGradient10" spreadMethod="reflect">
        <stop stop-opacity="1" stop-color="rgb(232,238,247)" offset="0%"/>
        <stop stop-opacity="1" stop-color="rgb(183,201,227)" offset="100%"/>
      </linearGradient>
      <linearGradient x1="315.5" gradientUnits="userSpaceOnUse" x2="395.5" y1="67" y2="107" id="linearGradient11" spreadMethod="reflect">
        <stop stop-opacity="1" stop-color="rgb(232,238,247)" offset="0%"/>
        <stop stop-opacity="1" stop-color="rgb(183,201,227)" offset="100%"/>
      </linearGradient>
      <linearGradient x1="128.5" gradientUnits="userSpaceOnUse" x2="208.5" y1="-57" y2="-17" id="linearGradient12" spreadMethod="reflect">
        <stop stop-opacity="1" stop-color="rgb(232,238,247)" offset="0%"/>
        <stop stop-opacity="1" stop-color="rgb(183,201,227)" offset="100%"/>
      </linearGradient>
      <linearGradient x1="59.25" gradientUnits="userSpaceOnUse" x2="119.25" y1="278.5" y2="318.5" id="linearGradient13" spreadMethod="reflect">
        <stop stop-opacity="1" stop-color="rgb(232,238,247)" offset="0%"/>
        <stop stop-opacity="1" stop-color="rgb(183,201,227)" offset="100%"/>
      </linearGradient>
      <linearGradient x1="-74" gradientUnits="userSpaceOnUse" x2="6" y1="278.5" y2="318.5" id="linearGradient14" spreadMethod="reflect">
        <stop stop-opacity="1" stop-color="rgb(232,238,247)" offset="0%"/>
        <stop stop-opacity="1" stop-color="rgb(183,201,227)" offset="100%"/>
      </linearGradient>
      <linearGradient x1="-64" gradientUnits="userSpaceOnUse" x2="-4" y1="348.5" y2="388.5" id="linearGradient15" spreadMethod="reflect">
        <stop stop-opacity="1" stop-color="rgb(232,238,247)" offset="0%"/>
        <stop stop-opacity="1" stop-color="rgb(183,201,227)" offset="100%"/>
      </linearGradient>
      <linearGradient x1="-74" gradientUnits="userSpaceOnUse" x2="6" y1="207" y2="257" id="linearGradient16" spreadMethod="reflect">
        <stop stop-opacity="1" stop-color="rgb(232,238,247)" offset="0%"/>
        <stop stop-opacity="1" stop-color="rgb(183,201,227)" offset="100%"/>
      </linearGradient>
      <linearGradient x1="49.25" gradientUnits="userSpaceOnUse" x2="129.25" y1="198.5" y2="248.5" id="linearGradient17" spreadMethod="reflect">
        <stop stop-opacity="1" stop-color="rgb(232,238,247)" offset="0%"/>
        <stop stop-opacity="1" stop-color="rgb(183,201,227)" offset="100%"/>
      </linearGradient>
      <linearGradient x1="172.5" gradientUnits="userSpaceOnUse" x2="252.5" y1="278.5" y2="318.5" id="linearGradient18" spreadMethod="reflect">
        <stop stop-opacity="1" stop-color="rgb(232,238,247)" offset="0%"/>
        <stop stop-opacity="1" stop-color="rgb(183,201,227)" offset="100%"/>
      </linearGradient>
      <linearGradient x1="172.5" gradientUnits="userSpaceOnUse" x2="252.5" y1="348.5" y2="388.5" id="linearGradient19" spreadMethod="reflect">
        <stop stop-opacity="1" stop-color="rgb(232,238,247)" offset="0%"/>
        <stop stop-opacity="1" stop-color="rgb(183,201,227)" offset="100%"/>
      </linearGradient>
      <clipPath clipPathUnits="userSpaceOnUse" id="clipPath1">
        <path d="M0 0 L751 0 L751 585 L0 585 L0 0 Z"/>
      </clipPath>
      <clipPath clipPathUnits="userSpaceOnUse" id="clipPath2">
        <path d="M-108 -181 L643 -181 L643 404 L-108 404 L-108 -181 Z"/>
      </clipPath>
    </defs>
    <g fill="white" text-rendering="geometricPrecision" shape-rendering="geometricPrecision" transform="translate(108,181)" stroke="white">
      <rect x="-108" width="751" height="585" y="-181" clip-path="url(#clipPath2)" stroke="none"/>
    </g>
    <g fill="url(#linearGradient1)" text-rendering="geometricPrecision" shape-rendering="geometricPrecision" transform="matrix(1,0,0,1,108,181)" stroke="url(#linearGradient1)">
      <ellipse rx="56.5" ry="20" clip-path="url(#clipPath2)" cx="571" cy="-32" stroke="none"/>
    </g>
    <g text-rendering="geometricPrecision" stroke-miterlimit="1.45" shape-rendering="geometricPrecision" transform="matrix(1,0,0,1,108,181)" stroke-linecap="butt">
      <ellipse rx="56.5" fill="none" ry="20" clip-path="url(#clipPath2)" cx="571" cy="-32"/>
      <text x="541.4189" xml:space="preserve" y="-27.8457" clip-path="url(#clipPath2)" font-family="sans-serif" stroke="none">gmrender</text>
    </g>
    <g fill="url(#linearGradient2)" text-rendering="geometricPrecision" shape-rendering="geometricPrecision" transform="matrix(1,0,0,1,108,181)" stroke="url(#linearGradient2)">
      <path d="M325.5 189.25 C327.3 181.25 383.7 181.25 385.5 189.25 L385.5 213.25 C383.7 221.25 327.3 221.25 325.5 213.25 Z" stroke="none" clip-path="url(#clipPath2)"/>
    </g>
    <g text-rendering="geometricPrecision" stroke-miterlimit="1.45" shape-rendering="geometricPrecision" transform="matrix(1,0,0,1,108,181)" stroke-linecap="butt">
      <path fill="none" d="M325.5 189.25 C327.3 181.25 383.7 181.25 385.5 189.25 L385.5 213.25 C383.7 221.25 327.3 221.25 325.5 213.25 Z" clip-path="url(#clipPath2)"/>
      <path fill="none" d="M385.5 189.25 C383.7 197.25 327.3 197.25 325.5 189.25" clip-path="url(#clipPath2)"/>
      <text x="338.4287" xml:space="preserve" y="205.4043" clip-path="url(#clipPath2)" font-family="sans-serif" stroke="none">Music</text>
    </g>
    <g fill="url(#linearGradient3)" text-rendering="geometricPrecision" shape-rendering="geometricPrecision" transform="matrix(1,0,0,1,108,181)" stroke="url(#linearGradient3)">
      <path d="M531 103 L611 103 L611 143 L531 143 Z" stroke="none" clip-path="url(#clipPath2)"/>
    </g>
    <g text-rendering="geometricPrecision" stroke-miterlimit="1.45" shape-rendering="geometricPrecision" transform="matrix(1,0,0,1,108,181)" stroke-linecap="butt">
      <path fill="none" d="M531 103 L611 103 L611 143 L531 143 Z" clip-path="url(#clipPath2)"/>
      <text x="551.3184" xml:space="preserve" y="127.1543" clip-path="url(#clipPath2)" font-family="sans-serif" stroke="none">Stereo</text>
    </g>
    <g fill="url(#linearGradient4)" text-rendering="geometricPrecision" shape-rendering="geometricPrecision" transform="matrix(1,0,0,1,108,181)" stroke="url(#linearGradient4)">
      <path d="M109.625 88.5 C95.5 74.5 109.625 62 132.79 71 C132.79 62 171.21 62 171.21 71 C194.375 62 208.5 74.5 194.375 85.5 C208.5 99.5 194.375 112 176.86 103 C171.21 112 132.79 112 138.44 103 C109.625 112 95.5 99.5 109.625 88.5 Z" stroke="none" clip-path="url(#clipPath2)"/>
    </g>
    <g text-rendering="geometricPrecision" stroke-miterlimit="1.45" shape-rendering="geometricPrecision" transform="matrix(1,0,0,1,108,181)" stroke-linecap="butt">
      <path fill="none" d="M109.625 88.5 C95.5 74.5 109.625 62 132.79 71 C132.79 62 171.21 62 171.21 71 C194.375 62 208.5 74.5 194.375 85.5 C208.5 99.5 194.375 112 176.86 103 C171.21 112 132.79 112 138.44 103 C109.625 112 95.5 99.5 109.625 88.5 Z" clip-path="url(#clipPath2)"/>
      <text x="110.8848" xml:space="preserve" y="91.1543" clip-path="url(#clipPath2)" font-family="sans-serif" stroke="none">udp multicast</text>
    </g>
    <g fill="url(#linearGradient5)" text-rendering="geometricPrecision" shape-rendering="geometricPrecision" transform="matrix(1,0,0,1,108,181)" stroke="url(#linearGradient5)">
      <ellipse rx="40" ry="20" clip-path="url(#clipPath2)" cx="-52.5" cy="87" stroke="none"/>
    </g>
    <g text-rendering="geometricPrecision" stroke-miterlimit="1.45" shape-rendering="geometricPrecision" transform="matrix(1,0,0,1,108,181)" stroke-linecap="butt">
      <ellipse rx="40" fill="none" ry="20" clip-path="url(#clipPath2)" cx="-52.5" cy="87"/>
      <text x="-87.8086" xml:space="preserve" y="91.1543" clip-path="url(#clipPath2)" font-family="sans-serif" stroke="none">pleg:udpsrc</text>
    </g>
    <g fill="url(#linearGradient6)" text-rendering="geometricPrecision" shape-rendering="geometricPrecision" transform="matrix(1,0,0,1,108,181)" stroke="url(#linearGradient6)">
      <path d="M-92.5 -57 L-12.5 -57 L-12.5 -17 L-92.5 -17 Z" stroke="none" clip-path="url(#clipPath2)"/>
    </g>
    <g text-rendering="geometricPrecision" stroke-miterlimit="1.45" shape-rendering="geometricPrecision" transform="matrix(1,0,0,1,108,181)" stroke-linecap="butt">
      <path fill="none" d="M-92.5 -57 L-12.5 -57 L-12.5 -17 L-92.5 -17 Z" clip-path="url(#clipPath2)"/>
      <text x="-69.5537" xml:space="preserve" y="-32.8457" clip-path="url(#clipPath2)" font-family="sans-serif" stroke="none">Audio</text>
    </g>
    <g fill="url(#linearGradient7)" text-rendering="geometricPrecision" shape-rendering="geometricPrecision" transform="matrix(1,0,0,1,108,181)" stroke="url(#linearGradient7)">
      <path d="M528.625 -139.5 C514.5 -153.5 528.625 -166 551.79 -157 C551.79 -166 590.21 -166 590.21 -157 C613.375 -166 627.5 -153.5 613.375 -142.5 C627.5 -128.5 613.375 -116 595.86 -125 C590.21 -116 551.79 -116 557.44 -125 C528.625 -116 514.5 -128.5 528.625 -139.5 Z" stroke="none" clip-path="url(#clipPath2)"/>
    </g>
    <g text-rendering="geometricPrecision" stroke-miterlimit="1.45" shape-rendering="geometricPrecision" transform="matrix(1,0,0,1,108,181)" stroke-linecap="butt">
      <path fill="none" d="M528.625 -139.5 C514.5 -153.5 528.625 -166 551.79 -157 C551.79 -166 590.21 -166 590.21 -157 C613.375 -166 627.5 -153.5 613.375 -142.5 C627.5 -128.5 613.375 -116 595.86 -125 C590.21 -116 551.79 -116 557.44 -125 C528.625 -116 514.5 -128.5 528.625 -139.5 Z" clip-path="url(#clipPath2)"/>
      <text x="530.7666" xml:space="preserve" y="-136.8457" clip-path="url(#clipPath2)" font-family="sans-serif" stroke="none">agile:webapp</text>
    </g>
    <g fill="url(#linearGradient8)" text-rendering="geometricPrecision" shape-rendering="geometricPrecision" transform="matrix(1,0,0,1,108,181)" stroke="url(#linearGradient8)">
      <ellipse rx="56.5" ry="20" clip-path="url(#clipPath2)" cx="355.5" cy="-141" stroke="none"/>
    </g>
    <g text-rendering="geometricPrecision" stroke-miterlimit="1.45" shape-rendering="geometricPrecision" transform="matrix(1,0,0,1,108,181)" stroke-linecap="butt">
      <ellipse rx="56.5" fill="none" ry="20" clip-path="url(#clipPath2)" cx="355.5" cy="-141"/>
      <text x="309.835" xml:space="preserve" y="-136.8457" clip-path="url(#clipPath2)" font-family="sans-serif" stroke="none">anthrax:upplay</text>
    </g>
    <g fill="url(#linearGradient9)" text-rendering="geometricPrecision" shape-rendering="geometricPrecision" transform="matrix(1,0,0,1,108,181)" stroke="url(#linearGradient9)">
      <path d="M313.125 -35.5 C299 -49.5 313.125 -62 336.29 -53 C336.29 -62 374.71 -62 374.71 -53 C397.875 -62 412 -49.5 397.875 -38.5 C412 -24.5 397.875 -12 380.36 -21 C374.71 -12 336.29 -12 341.94 -21 C313.125 -12 299 -24.5 313.125 -35.5 Z" stroke="none" clip-path="url(#clipPath2)"/>
    </g>
    <g text-rendering="geometricPrecision" stroke-miterlimit="1.45" shape-rendering="geometricPrecision" transform="matrix(1,0,0,1,108,181)" stroke-linecap="butt">
      <path fill="none" d="M313.125 -35.5 C299 -49.5 313.125 -62 336.29 -53 C336.29 -62 374.71 -62 374.71 -53 C397.875 -62 412 -49.5 397.875 -38.5 C412 -24.5 397.875 -12 380.36 -21 C374.71 -12 336.29 -12 341.94 -21 C313.125 -12 299 -24.5 313.125 -35.5 Z" clip-path="url(#clipPath2)"/>
      <text x="321.4863" xml:space="preserve" y="-32.8457" clip-path="url(#clipPath2)" font-family="sans-serif" stroke="none">upnp / dnla</text>
    </g>
    <g fill="url(#linearGradient10)" text-rendering="geometricPrecision" shape-rendering="geometricPrecision" transform="matrix(1,0,0,1,108,181)" stroke="url(#linearGradient10)">
      <ellipse rx="56.5" ry="20" clip-path="url(#clipPath2)" cx="168.5" cy="-141" stroke="none"/>
    </g>
    <g text-rendering="geometricPrecision" stroke-miterlimit="1.45" shape-rendering="geometricPrecision" transform="matrix(1,0,0,1,108,181)" stroke-linecap="butt">
      <ellipse rx="56.5" fill="none" ry="20" clip-path="url(#clipPath2)" cx="168.5" cy="-141"/>
      <text x="129.7227" xml:space="preserve" y="-136.8457" clip-path="url(#clipPath2)" font-family="sans-serif" stroke="none">silver:bubble</text>
    </g>
    <g fill="url(#linearGradient11)" text-rendering="geometricPrecision" shape-rendering="geometricPrecision" transform="matrix(1,0,0,1,108,181)" stroke="url(#linearGradient11)">
      <ellipse rx="40" ry="20" clip-path="url(#clipPath2)" cx="355.5" cy="87" stroke="none"/>
    </g>
    <g text-rendering="geometricPrecision" stroke-miterlimit="1.45" shape-rendering="geometricPrecision" transform="matrix(1,0,0,1,108,181)" stroke-linecap="butt">
      <ellipse rx="40" fill="none" ry="20" clip-path="url(#clipPath2)" cx="355.5" cy="87"/>
      <text x="321.1348" xml:space="preserve" y="91.1543" clip-path="url(#clipPath2)" font-family="sans-serif" stroke="none">mediatomb</text>
    </g>
    <g fill="url(#linearGradient12)" text-rendering="geometricPrecision" shape-rendering="geometricPrecision" transform="matrix(1,0,0,1,108,181)" stroke="url(#linearGradient12)">
      <ellipse rx="40" ry="20" clip-path="url(#clipPath2)" cx="168.5" cy="-37" stroke="none"/>
    </g>
    <g text-rendering="geometricPrecision" stroke-miterlimit="1.45" shape-rendering="geometricPrecision" transform="matrix(1,0,0,1,108,181)" stroke-linecap="butt">
      <ellipse rx="40" fill="none" ry="20" clip-path="url(#clipPath2)" cx="168.5" cy="-37"/>
      <text x="138.9189" xml:space="preserve" y="-32.8457" clip-path="url(#clipPath2)" font-family="sans-serif" stroke="none">gmrender</text>
    </g>
    <g fill="url(#linearGradient13)" text-rendering="geometricPrecision" shape-rendering="geometricPrecision" transform="matrix(1,0,0,1,108,181)" stroke="url(#linearGradient13)">
      <ellipse rx="30" ry="20" clip-path="url(#clipPath2)" cx="89.25" cy="298.5" stroke="none"/>
    </g>
    <g text-rendering="geometricPrecision" stroke-miterlimit="1.45" shape-rendering="geometricPrecision" transform="matrix(1,0,0,1,108,181)" stroke-linecap="butt">
      <ellipse rx="30" fill="none" ry="20" clip-path="url(#clipPath2)" cx="89.25" cy="298.5"/>
      <text x="64.96" xml:space="preserve" y="302.6543" clip-path="url(#clipPath2)" font-family="sans-serif" stroke="none">pi0:pleg</text>
    </g>
    <g fill="rgb(255,204,0)" text-rendering="geometricPrecision" shape-rendering="geometricPrecision" transform="matrix(1,0,0,1,108,181)" stroke="rgb(255,204,0)">
      <rect x="368" width="227" height="93" y="295.5" clip-path="url(#clipPath2)" stroke="none"/>
    </g>
    <g text-rendering="geometricPrecision" stroke-miterlimit="1.45" shape-rendering="geometricPrecision" transform="matrix(1,0,0,1,108,181)" stroke-linecap="butt">
      <rect fill="none" x="368" width="227" height="93" y="295.5" clip-path="url(#clipPath2)"/>
      <text x="425.9531" xml:space="preserve" y="332.1855" clip-path="url(#clipPath2)" font-family="sans-serif" stroke="none">1 - silver-pi2-noise</text>
      <text x="405.3691" xml:space="preserve" y="346.1543" clip-path="url(#clipPath2)" font-family="sans-serif" stroke="none">2 - anthrax-mirror-noisier</text>
      <text x="416.918" xml:space="preserve" y="360.123" clip-path="url(#clipPath2)" font-family="sans-serif" stroke="none">3 - ambient-facepalm</text>
    </g>
    <g fill="url(#linearGradient14)" text-rendering="geometricPrecision" shape-rendering="geometricPrecision" transform="matrix(1,0,0,1,108,181)" stroke="url(#linearGradient14)">
      <ellipse rx="40" ry="20" clip-path="url(#clipPath2)" cx="-34" cy="298.5" stroke="none"/>
    </g>
    <g text-rendering="geometricPrecision" stroke-miterlimit="1.45" shape-rendering="geometricPrecision" transform="matrix(1,0,0,1,108,181)" stroke-linecap="butt">
      <ellipse rx="40" fill="none" ry="20" clip-path="url(#clipPath2)" cx="-34" cy="298.5"/>
      <text x="-58.29" xml:space="preserve" y="302.6543" clip-path="url(#clipPath2)" font-family="sans-serif" stroke="none">pi4:pleg</text>
    </g>
    <g fill="url(#linearGradient15)" text-rendering="geometricPrecision" shape-rendering="geometricPrecision" transform="matrix(1,0,0,1,108,181)" stroke="url(#linearGradient15)">
      <path d="M-64 356.5 C-62.2 348.5 -5.8 348.5 -4 356.5 L-4 380.5 C-5.8 388.5 -62.2 388.5 -64 380.5 Z" stroke="none" clip-path="url(#clipPath2)"/>
    </g>
    <g text-rendering="geometricPrecision" stroke-miterlimit="1.45" shape-rendering="geometricPrecision" transform="matrix(1,0,0,1,108,181)" stroke-linecap="butt">
      <path fill="none" d="M-64 356.5 C-62.2 348.5 -5.8 348.5 -4 356.5 L-4 380.5 C-5.8 388.5 -62.2 388.5 -64 380.5 Z" clip-path="url(#clipPath2)"/>
      <path fill="none" d="M-4 356.5 C-5.8 364.5 -62.2 364.5 -64 356.5" clip-path="url(#clipPath2)"/>
      <text x="-42.7158" xml:space="preserve" y="372.6543" clip-path="url(#clipPath2)" font-family="sans-serif" stroke="none">wd</text>
    </g>
    <g fill="url(#linearGradient16)" text-rendering="geometricPrecision" shape-rendering="geometricPrecision" transform="matrix(1,0,0,1,108,181)" stroke="url(#linearGradient16)">
      <path d="M-64 233.5 C-74 219.5 -64 207 -47.6 216 C-47.6 207 -20.4 207 -20.4 216 C-4 207 6 219.5 -4 230.5 C6 244.5 -4 257 -16.4 248 C-20.4 257 -47.6 257 -43.6 248 C-64 257 -74 244.5 -64 233.5 Z" stroke="none" clip-path="url(#clipPath2)"/>
    </g>
    <g text-rendering="geometricPrecision" stroke-miterlimit="1.45" shape-rendering="geometricPrecision" transform="matrix(1,0,0,1,108,181)" stroke-linecap="butt">
      <path fill="none" d="M-64 233.5 C-74 219.5 -64 207 -47.6 216 C-47.6 207 -20.4 207 -20.4 216 C-4 207 6 219.5 -4 230.5 C6 244.5 -4 257 -16.4 248 C-20.4 257 -47.6 257 -43.6 248 C-64 257 -74 244.5 -64 233.5 Z" clip-path="url(#clipPath2)"/>
      <text x="-56.582" xml:space="preserve" y="236.1543" clip-path="url(#clipPath2)" font-family="sans-serif" stroke="none">HackRF</text>
    </g>
    <g fill="url(#linearGradient17)" text-rendering="geometricPrecision" shape-rendering="geometricPrecision" transform="matrix(1,0,0,1,108,181)" stroke="url(#linearGradient17)">
      <path d="M59.25 225 C49.25 211 59.25 198.5 75.65 207.5 C75.65 198.5 102.85 198.5 102.85 207.5 C119.25 198.5 129.25 211 119.25 222 C129.25 236 119.25 248.5 106.85 239.5 C102.85 248.5 75.65 248.5 79.65 239.5 C59.25 248.5 49.25 236 59.25 225 Z" stroke="none" clip-path="url(#clipPath2)"/>
    </g>
    <g text-rendering="geometricPrecision" stroke-miterlimit="1.45" shape-rendering="geometricPrecision" transform="matrix(1,0,0,1,108,181)" stroke-linecap="butt">
      <path fill="none" d="M59.25 225 C49.25 211 59.25 198.5 75.65 207.5 C75.65 198.5 102.85 198.5 102.85 207.5 C119.25 198.5 129.25 211 119.25 222 C129.25 236 119.25 248.5 106.85 239.5 C102.85 248.5 75.65 248.5 79.65 239.5 C59.25 248.5 49.25 236 59.25 225 Z" clip-path="url(#clipPath2)"/>
      <text x="73.5732" xml:space="preserve" y="227.6543" clip-path="url(#clipPath2)" font-family="sans-serif" stroke="none">1 bar</text>
    </g>
    <g fill="url(#linearGradient18)" text-rendering="geometricPrecision" shape-rendering="geometricPrecision" transform="matrix(1,0,0,1,108,181)" stroke="url(#linearGradient18)">
      <ellipse rx="40" ry="20" clip-path="url(#clipPath2)" cx="212.5" cy="298.5" stroke="none"/>
    </g>
    <g text-rendering="geometricPrecision" stroke-miterlimit="1.45" shape-rendering="geometricPrecision" transform="matrix(1,0,0,1,108,181)" stroke-linecap="butt">
      <ellipse rx="40" fill="none" ry="20" clip-path="url(#clipPath2)" cx="212.5" cy="298.5"/>
      <text x="184.3926" xml:space="preserve" y="302.6543" clip-path="url(#clipPath2)" font-family="sans-serif" stroke="none">pi32:pleg</text>
    </g>
    <g fill="url(#linearGradient19)" text-rendering="geometricPrecision" shape-rendering="geometricPrecision" transform="matrix(1,0,0,1,108,181)" stroke="url(#linearGradient19)">
      <path d="M172.5 348.5 L252.5 348.5 L252.5 388.5 L172.5 388.5 Z" stroke="none" clip-path="url(#clipPath2)"/>
    </g>
    <g text-rendering="geometricPrecision" stroke-miterlimit="1.45" shape-rendering="geometricPrecision" transform="matrix(1,0,0,1,108,181)" stroke-linecap="butt">
      <path fill="none" d="M172.5 348.5 L252.5 348.5 L252.5 388.5 L172.5 388.5 Z" clip-path="url(#clipPath2)"/>
      <text x="189.0244" xml:space="preserve" y="372.6543" clip-path="url(#clipPath2)" font-family="sans-serif" stroke="none">monitor</text>
    </g>
    <g text-rendering="geometricPrecision" stroke-miterlimit="1.45" shape-rendering="geometricPrecision" transform="matrix(1,0,0,1,108,181)" stroke-linecap="butt">
      <path fill="none" d="M571 -11.9817 L571 94.9966" clip-path="url(#clipPath2)"/>
      <path d="M571 102.9966 L576 90.9966 L571 93.9966 L566 90.9966 Z" clip-path="url(#clipPath2)" stroke="none"/>
      <text x="509.4004" xml:space="preserve" y="49.6543" clip-path="url(#clipPath2)" font-family="sans-serif" stroke="none">Optical (1)</text>
      <path fill="none" d="M111.3509 104.8123 L82.9922 116.25 L58.9502 123.5625 L48.4962 125.3906 L38.6875 126 L29.2245 125.3906 L19.8076 123.5625 L-0.0859 116.25 L-19.5397 106.076 L-19.6259 106.0254" clip-path="url(#clipPath2)"/>
      <path d="M-26.6327 102.1647 L-18.5355 112.335 L-18.7501 106.508 L-13.7096 103.5765 Z" clip-path="url(#clipPath2)" stroke="none"/>
      <text x="42.9094" xml:space="preserve" y="103.0321" clip-path="url(#clipPath2)" font-family="sans-serif" stroke="none">(2)</text>
      <path fill="none" d="M-52.5 66.9893 L-52.5 -9.0196" clip-path="url(#clipPath2)"/>
      <path d="M-52.5 -17.0196 L-57.5 -5.0196 L-52.5 -8.0196 L-47.5 -5.0196 Z" clip-path="url(#clipPath2)" stroke="none"/>
      <text x="-30.999" xml:space="preserve" y="29.1543" clip-path="url(#clipPath2)" font-family="sans-serif" stroke="none">(2)</text>
      <path fill="none" d="M571 -118.2473 L571 -60.0037" clip-path="url(#clipPath2)"/>
      <path d="M571 -52.0037 L576 -64.0036 L571 -61.0037 L566 -64.0036 Z" clip-path="url(#clipPath2)" stroke="none"/>
      <path fill="none" d="M355.5 -121.0176 L355.5 -67.7684" clip-path="url(#clipPath2)"/>
      <path d="M355.5 -59.7684 L360.5 -71.7684 L355.5 -68.7684 L350.5 -71.7684 Z" clip-path="url(#clipPath2)" stroke="none"/>
      <path fill="none" d="M400.1415 -35.9642 L506.6472 -33.4931" clip-path="url(#clipPath2)"/>
      <path d="M514.6451 -33.3075 L502.7643 -38.5845 L505.6475 -33.5163 L502.5323 -28.5872 Z" clip-path="url(#clipPath2)" stroke="none"/>
      <text x="454.751" xml:space="preserve" y="-60.3538" clip-path="url(#clipPath2)" font-family="sans-serif" stroke="none">(1)</text>
      <path fill="none" d="M198.8373 -124.1279 L314.2768 -59.9263" clip-path="url(#clipPath2)"/>
      <path d="M321.2683 -56.038 L313.2112 -66.2401 L313.4029 -60.4123 L308.3508 -57.5008 Z" clip-path="url(#clipPath2)" stroke="none"/>
      <text x="274.3151" xml:space="preserve" y="-107.5974" clip-path="url(#clipPath2)" font-family="sans-serif" stroke="none">(1)</text>
      <path fill="none" d="M355.5 183.259 L355.5 114.9756" clip-path="url(#clipPath2)"/>
      <path d="M355.5 106.9756 L350.5 118.9756 L355.5 115.9756 L360.5 118.9756 Z" clip-path="url(#clipPath2)" stroke="none"/>
      <path fill="none" d="M355.5 66.9893 L355.5 -6.2777" clip-path="url(#clipPath2)"/>
      <path d="M355.5 -14.2777 L350.5 -2.2777 L355.5 -5.2777 L360.5 -2.2777 Z" clip-path="url(#clipPath2)" stroke="none"/>
      <path fill="none" d="M311.7175 -37 L216.4652 -37" clip-path="url(#clipPath2)"/>
      <path d="M208.4652 -37 L220.4652 -32 L217.4652 -37 L220.4652 -42 Z" clip-path="url(#clipPath2)" stroke="none"/>
      <path fill="none" d="M153.1973 -18.5168 L150.9131 -15.7578 L138.1484 0.9375 L130.0127 14.5391 L126.3125 26.5 L126.8545 38.2734 L131.4453 51.3125 L135.4359 58.7575" clip-path="url(#clipPath2)"/>
      <path d="M139.2152 65.8085 L137.953 52.8699 L134.9634 57.8761 L129.1393 57.5941 Z" clip-path="url(#clipPath2)" stroke="none"/>
      <text x="139.3888" xml:space="preserve" y="38.5873" clip-path="url(#clipPath2)" font-family="sans-serif" stroke="none">(2)</text>
      <path fill="none" d="M-34 318.4951 L-34 342.4807" clip-path="url(#clipPath2)"/>
      <path d="M-34 350.4807 L-29 338.4807 L-34 341.4807 L-39 338.4807 Z" clip-path="url(#clipPath2)" stroke="none"/>
      <path fill="none" d="M-34 254.762 L-34 270.4677" clip-path="url(#clipPath2)"/>
      <path d="M-34 278.4677 L-29 266.4677 L-34 269.4677 L-39 266.4677 Z" clip-path="url(#clipPath2)" stroke="none"/>
      <path fill="none" d="M89.25 246.2417 L89.25 270.5204" clip-path="url(#clipPath2)"/>
      <path d="M89.25 278.5204 L94.25 266.5204 L89.25 269.5204 L84.25 266.5204 Z" clip-path="url(#clipPath2)" stroke="none"/>
      <path fill="none" d="M119.2501 298.5 L164.4772 298.5" clip-path="url(#clipPath2)"/>
      <path d="M172.4772 298.5 L160.4772 293.5 L163.4772 298.5 L160.4772 303.5 Z" clip-path="url(#clipPath2)" stroke="none"/>
      <path fill="none" d="M-3.8879 311.6448 L6.8408 316.3281 L39.0391 329.0625 L65.4834 336.7031 L77.4506 338.6133 L89.0625 339.25 L100.6803 338.6133 L112.665 336.7031 L139.1797 329.0625 L171.4951 316.3281 L175.0104 314.7997" clip-path="url(#clipPath2)"/>
      <path d="M182.347 311.6099 L169.3485 311.8093 L174.0934 315.1984 L173.3358 320.98 Z" clip-path="url(#clipPath2)" stroke="none"/>
      <path fill="none" d="M165.2358 108.6496 L186.9766 144.2109 L197.7295 165.5361 L204.9375 185.3125 L209.3096 206.0186 L211.5547 230.1328 L212.1129 270.5047" clip-path="url(#clipPath2)"/>
      <path d="M212.2235 278.5039 L217.0571 266.4359 L212.0991 269.5048 L207.0581 266.5742 Z" clip-path="url(#clipPath2)" stroke="none"/>
      <text x="229.3688" xml:space="preserve" y="170.9728" clip-path="url(#clipPath2)" font-family="sans-serif" stroke="none">(3)</text>
      <path fill="none" d="M212.5 318.4951 L212.5 340.5273" clip-path="url(#clipPath2)"/>
      <path d="M212.5 348.5273 L217.5 336.5273 L212.5 339.5273 L207.5 336.5273 Z" clip-path="url(#clipPath2)" stroke="none"/>
    </g>
  </g>
</svg>
