<?xml version="1.0" encoding="UTF-8"?><svg xmlns="http://www.w3.org/2000/svg" xmlns:xlink="http://www.w3.org/1999/xlink" fill-opacity="1" color-rendering="auto" color-interpolation="auto" text-rendering="auto" stroke="black" stroke-linecap="square" width="922" stroke-miterlimit="10" shape-rendering="auto" stroke-opacity="1" fill="black" stroke-dasharray="none" font-weight="normal" stroke-width="1" height="610" font-family="'Dialog'" font-style="normal" stroke-linejoin="miter" font-size="12px" stroke-dashoffset="0" image-rendering="auto">
  <!--Generated by ySVG 2.5-->
  <defs id="genericDefs"/>
  <g>
    <defs id="defs1">
      <linearGradient x1="791.5" gradientUnits="userSpaceOnUse" x2="904.5" y1="452" y2="492" id="linearGradient1" spreadMethod="reflect">
        <stop stop-opacity="1" stop-color="rgb(232,238,247)" offset="0%"/>
        <stop stop-opacity="1" stop-color="rgb(183,201,227)" offset="100%"/>
      </linearGradient>
      <linearGradient x1="818" gradientUnits="userSpaceOnUse" x2="878" y1="576" y2="616" id="linearGradient2" spreadMethod="reflect">
        <stop stop-opacity="1" stop-color="rgb(232,238,247)" offset="0%"/>
        <stop stop-opacity="1" stop-color="rgb(183,201,227)" offset="100%"/>
      </linearGradient>
      <linearGradient x1="808" gradientUnits="userSpaceOnUse" x2="888" y1="328" y2="368" id="linearGradient3" spreadMethod="reflect">
        <stop stop-opacity="1" stop-color="rgb(232,238,247)" offset="0%"/>
        <stop stop-opacity="1" stop-color="rgb(183,201,227)" offset="100%"/>
      </linearGradient>
      <linearGradient x1="362" gradientUnits="userSpaceOnUse" x2="475" y1="447" y2="497" id="linearGradient4" spreadMethod="reflect">
        <stop stop-opacity="1" stop-color="rgb(232,238,247)" offset="0%"/>
        <stop stop-opacity="1" stop-color="rgb(183,201,227)" offset="100%"/>
      </linearGradient>
      <linearGradient x1="155" gradientUnits="userSpaceOnUse" x2="306" y1="452" y2="492" id="linearGradient5" spreadMethod="reflect">
        <stop stop-opacity="1" stop-color="rgb(232,238,247)" offset="0%"/>
        <stop stop-opacity="1" stop-color="rgb(183,201,227)" offset="100%"/>
      </linearGradient>
      <linearGradient x1="190.5" gradientUnits="userSpaceOnUse" x2="270.5" y1="328" y2="368" id="linearGradient6" spreadMethod="reflect">
        <stop stop-opacity="1" stop-color="rgb(232,238,247)" offset="0%"/>
        <stop stop-opacity="1" stop-color="rgb(183,201,227)" offset="100%"/>
      </linearGradient>
      <linearGradient x1="791.5" gradientUnits="userSpaceOnUse" x2="904.5" y1="219" y2="269" id="linearGradient7" spreadMethod="reflect">
        <stop stop-opacity="1" stop-color="rgb(232,238,247)" offset="0%"/>
        <stop stop-opacity="1" stop-color="rgb(183,201,227)" offset="100%"/>
      </linearGradient>
      <linearGradient x1="582" gradientUnits="userSpaceOnUse" x2="695" y1="224" y2="264" id="linearGradient8" spreadMethod="reflect">
        <stop stop-opacity="1" stop-color="rgb(232,238,247)" offset="0%"/>
        <stop stop-opacity="1" stop-color="rgb(183,201,227)" offset="100%"/>
      </linearGradient>
      <linearGradient x1="582" gradientUnits="userSpaceOnUse" x2="695" y1="323" y2="373" id="linearGradient9" spreadMethod="reflect">
        <stop stop-opacity="1" stop-color="rgb(232,238,247)" offset="0%"/>
        <stop stop-opacity="1" stop-color="rgb(183,201,227)" offset="100%"/>
      </linearGradient>
      <linearGradient x1="439" gradientUnits="userSpaceOnUse" x2="552" y1="224" y2="264" id="linearGradient10" spreadMethod="reflect">
        <stop stop-opacity="1" stop-color="rgb(232,238,247)" offset="0%"/>
        <stop stop-opacity="1" stop-color="rgb(183,201,227)" offset="100%"/>
      </linearGradient>
      <linearGradient x1="582" gradientUnits="userSpaceOnUse" x2="695" y1="576" y2="616" id="linearGradient11" spreadMethod="reflect">
        <stop stop-opacity="1" stop-color="rgb(232,238,247)" offset="0%"/>
        <stop stop-opacity="1" stop-color="rgb(183,201,227)" offset="100%"/>
      </linearGradient>
      <linearGradient x1="378.5" gradientUnits="userSpaceOnUse" x2="491.5" y1="328" y2="368" id="linearGradient12" spreadMethod="reflect">
        <stop stop-opacity="1" stop-color="rgb(232,238,247)" offset="0%"/>
        <stop stop-opacity="1" stop-color="rgb(183,201,227)" offset="100%"/>
      </linearGradient>
      <linearGradient x1="505" gradientUnits="userSpaceOnUse" x2="628" y1="403" y2="443" id="linearGradient13" spreadMethod="reflect">
        <stop stop-opacity="1" stop-color="rgb(232,238,247)" offset="0%"/>
        <stop stop-opacity="1" stop-color="rgb(183,201,227)" offset="100%"/>
      </linearGradient>
      <linearGradient x1="342.25" gradientUnits="userSpaceOnUse" x2="402.25" y1="663.5" y2="703.5" id="linearGradient14" spreadMethod="reflect">
        <stop stop-opacity="1" stop-color="rgb(232,238,247)" offset="0%"/>
        <stop stop-opacity="1" stop-color="rgb(183,201,227)" offset="100%"/>
      </linearGradient>
      <linearGradient x1="209" gradientUnits="userSpaceOnUse" x2="289" y1="663.5" y2="703.5" id="linearGradient15" spreadMethod="reflect">
        <stop stop-opacity="1" stop-color="rgb(232,238,247)" offset="0%"/>
        <stop stop-opacity="1" stop-color="rgb(183,201,227)" offset="100%"/>
      </linearGradient>
      <linearGradient x1="219" gradientUnits="userSpaceOnUse" x2="279" y1="733.5" y2="773.5" id="linearGradient16" spreadMethod="reflect">
        <stop stop-opacity="1" stop-color="rgb(232,238,247)" offset="0%"/>
        <stop stop-opacity="1" stop-color="rgb(183,201,227)" offset="100%"/>
      </linearGradient>
      <linearGradient x1="209" gradientUnits="userSpaceOnUse" x2="289" y1="592" y2="642" id="linearGradient17" spreadMethod="reflect">
        <stop stop-opacity="1" stop-color="rgb(232,238,247)" offset="0%"/>
        <stop stop-opacity="1" stop-color="rgb(183,201,227)" offset="100%"/>
      </linearGradient>
      <linearGradient x1="332.25" gradientUnits="userSpaceOnUse" x2="412.25" y1="583.5" y2="633.5" id="linearGradient18" spreadMethod="reflect">
        <stop stop-opacity="1" stop-color="rgb(232,238,247)" offset="0%"/>
        <stop stop-opacity="1" stop-color="rgb(183,201,227)" offset="100%"/>
      </linearGradient>
      <linearGradient x1="455.5" gradientUnits="userSpaceOnUse" x2="535.5" y1="663.5" y2="703.5" id="linearGradient19" spreadMethod="reflect">
        <stop stop-opacity="1" stop-color="rgb(232,238,247)" offset="0%"/>
        <stop stop-opacity="1" stop-color="rgb(183,201,227)" offset="100%"/>
      </linearGradient>
      <linearGradient x1="455.5" gradientUnits="userSpaceOnUse" x2="535.5" y1="733.5" y2="773.5" id="linearGradient20" spreadMethod="reflect">
        <stop stop-opacity="1" stop-color="rgb(232,238,247)" offset="0%"/>
        <stop stop-opacity="1" stop-color="rgb(183,201,227)" offset="100%"/>
      </linearGradient>
      <clipPath clipPathUnits="userSpaceOnUse" id="clipPath1">
        <path d="M0 0 L922 0 L922 610 L0 610 L0 0 Z"/>
      </clipPath>
      <clipPath clipPathUnits="userSpaceOnUse" id="clipPath2">
        <path d="M140 179 L1062 179 L1062 789 L140 789 L140 179 Z"/>
      </clipPath>
    </defs>
    <g fill="white" text-rendering="geometricPrecision" shape-rendering="geometricPrecision" transform="translate(-140,-179)" stroke="white">
      <rect x="140" width="922" height="610" y="179" clip-path="url(#clipPath2)" stroke="none"/>
    </g>
    <g fill="url(#linearGradient1)" text-rendering="geometricPrecision" shape-rendering="geometricPrecision" transform="matrix(1,0,0,1,-140,-179)" stroke="url(#linearGradient1)">
      <ellipse rx="56.5" ry="20" clip-path="url(#clipPath2)" cx="848" cy="472" stroke="none"/>
    </g>
    <g text-rendering="geometricPrecision" stroke-miterlimit="1.45" shape-rendering="geometricPrecision" transform="matrix(1,0,0,1,-140,-179)" stroke-linecap="butt">
      <ellipse rx="56.5" fill="none" ry="20" clip-path="url(#clipPath2)" cx="848" cy="472"/>
      <text x="807.1045" xml:space="preserve" y="476.1543" clip-path="url(#clipPath2)" font-family="sans-serif" stroke="none">pi2:gmrender</text>
    </g>
    <g fill="url(#linearGradient2)" text-rendering="geometricPrecision" shape-rendering="geometricPrecision" transform="matrix(1,0,0,1,-140,-179)" stroke="url(#linearGradient2)">
      <path d="M818 584 C819.8 576 876.2 576 878 584 L878 608 C876.2 616 819.8 616 818 608 Z" stroke="none" clip-path="url(#clipPath2)"/>
    </g>
    <g text-rendering="geometricPrecision" stroke-miterlimit="1.45" shape-rendering="geometricPrecision" transform="matrix(1,0,0,1,-140,-179)" stroke-linecap="butt">
      <path fill="none" d="M818 584 C819.8 576 876.2 576 878 584 L878 608 C876.2 616 819.8 616 818 608 Z" clip-path="url(#clipPath2)"/>
      <path fill="none" d="M878 584 C876.2 592 819.8 592 818 584" clip-path="url(#clipPath2)"/>
      <text x="830.9287" xml:space="preserve" y="600.1543" clip-path="url(#clipPath2)" font-family="sans-serif" stroke="none">Music</text>
    </g>
    <g fill="url(#linearGradient3)" text-rendering="geometricPrecision" shape-rendering="geometricPrecision" transform="matrix(1,0,0,1,-140,-179)" stroke="url(#linearGradient3)">
      <path d="M808 328 L888 328 L888 368 L808 368 Z" stroke="none" clip-path="url(#clipPath2)"/>
    </g>
    <g text-rendering="geometricPrecision" stroke-miterlimit="1.45" shape-rendering="geometricPrecision" transform="matrix(1,0,0,1,-140,-179)" stroke-linecap="butt">
      <path fill="none" d="M808 328 L888 328 L888 368 L808 368 Z" clip-path="url(#clipPath2)"/>
      <text x="828.3184" xml:space="preserve" y="352.1543" clip-path="url(#clipPath2)" font-family="sans-serif" stroke="none">Stereo</text>
    </g>
    <g fill="url(#linearGradient4)" text-rendering="geometricPrecision" shape-rendering="geometricPrecision" transform="matrix(1,0,0,1,-140,-179)" stroke="url(#linearGradient4)">
      <path d="M376.125 473.5 C362 459.5 376.125 447 399.29 456 C399.29 447 437.71 447 437.71 456 C460.875 447 475 459.5 460.875 470.5 C475 484.5 460.875 497 443.36 488 C437.71 497 399.29 497 404.94 488 C376.125 497 362 484.5 376.125 473.5 Z" stroke="none" clip-path="url(#clipPath2)"/>
    </g>
    <g text-rendering="geometricPrecision" stroke-miterlimit="1.45" shape-rendering="geometricPrecision" transform="matrix(1,0,0,1,-140,-179)" stroke-linecap="butt">
      <path fill="none" d="M376.125 473.5 C362 459.5 376.125 447 399.29 456 C399.29 447 437.71 447 437.71 456 C460.875 447 475 459.5 460.875 470.5 C475 484.5 460.875 497 443.36 488 C437.71 497 399.29 497 404.94 488 C376.125 497 362 484.5 376.125 473.5 Z" clip-path="url(#clipPath2)"/>
      <text x="377.3848" xml:space="preserve" y="476.1543" clip-path="url(#clipPath2)" font-family="sans-serif" stroke="none">udp multicast</text>
    </g>
    <g fill="url(#linearGradient5)" text-rendering="geometricPrecision" shape-rendering="geometricPrecision" transform="matrix(1,0,0,1,-140,-179)" stroke="url(#linearGradient5)">
      <ellipse rx="75.5" ry="20" clip-path="url(#clipPath2)" cx="230.5" cy="472" stroke="none"/>
    </g>
    <g text-rendering="geometricPrecision" stroke-miterlimit="1.45" shape-rendering="geometricPrecision" transform="matrix(1,0,0,1,-140,-179)" stroke-linecap="butt">
      <ellipse rx="75.5" fill="none" ry="20" clip-path="url(#clipPath2)" cx="230.5" cy="472"/>
      <text x="160.5449" xml:space="preserve" y="476.1543" clip-path="url(#clipPath2)" font-family="sans-serif" stroke="none">anthrax:gmrender-mkII</text>
    </g>
    <g fill="url(#linearGradient6)" text-rendering="geometricPrecision" shape-rendering="geometricPrecision" transform="matrix(1,0,0,1,-140,-179)" stroke="url(#linearGradient6)">
      <path d="M190.5 328 L270.5 328 L270.5 368 L190.5 368 Z" stroke="none" clip-path="url(#clipPath2)"/>
    </g>
    <g text-rendering="geometricPrecision" stroke-miterlimit="1.45" shape-rendering="geometricPrecision" transform="matrix(1,0,0,1,-140,-179)" stroke-linecap="butt">
      <path fill="none" d="M190.5 328 L270.5 328 L270.5 368 L190.5 368 Z" clip-path="url(#clipPath2)"/>
      <text x="213.4463" xml:space="preserve" y="352.1543" clip-path="url(#clipPath2)" font-family="sans-serif" stroke="none">Audio</text>
    </g>
    <g fill="url(#linearGradient7)" text-rendering="geometricPrecision" shape-rendering="geometricPrecision" transform="matrix(1,0,0,1,-140,-179)" stroke="url(#linearGradient7)">
      <path d="M805.625 245.5 C791.5 231.5 805.625 219 828.79 228 C828.79 219 867.21 219 867.21 228 C890.375 219 904.5 231.5 890.375 242.5 C904.5 256.5 890.375 269 872.86 260 C867.21 269 828.79 269 834.44 260 C805.625 269 791.5 256.5 805.625 245.5 Z" stroke="none" clip-path="url(#clipPath2)"/>
    </g>
    <g text-rendering="geometricPrecision" stroke-miterlimit="1.45" shape-rendering="geometricPrecision" transform="matrix(1,0,0,1,-140,-179)" stroke-linecap="butt">
      <path fill="none" d="M805.625 245.5 C791.5 231.5 805.625 219 828.79 228 C828.79 219 867.21 219 867.21 228 C890.375 219 904.5 231.5 890.375 242.5 C904.5 256.5 890.375 269 872.86 260 C867.21 269 828.79 269 834.44 260 C805.625 269 791.5 256.5 805.625 245.5 Z" clip-path="url(#clipPath2)"/>
      <text x="807.7666" xml:space="preserve" y="248.1543" clip-path="url(#clipPath2)" font-family="sans-serif" stroke="none">agile:webapp</text>
    </g>
    <g fill="url(#linearGradient8)" text-rendering="geometricPrecision" shape-rendering="geometricPrecision" transform="matrix(1,0,0,1,-140,-179)" stroke="url(#linearGradient8)">
      <ellipse rx="56.5" ry="20" clip-path="url(#clipPath2)" cx="638.5" cy="244" stroke="none"/>
    </g>
    <g text-rendering="geometricPrecision" stroke-miterlimit="1.45" shape-rendering="geometricPrecision" transform="matrix(1,0,0,1,-140,-179)" stroke-linecap="butt">
      <ellipse rx="56.5" fill="none" ry="20" clip-path="url(#clipPath2)" cx="638.5" cy="244"/>
      <text x="592.835" xml:space="preserve" y="248.1543" clip-path="url(#clipPath2)" font-family="sans-serif" stroke="none">anthrax:upplay</text>
    </g>
    <g fill="url(#linearGradient9)" text-rendering="geometricPrecision" shape-rendering="geometricPrecision" transform="matrix(1,0,0,1,-140,-179)" stroke="url(#linearGradient9)">
      <path d="M596.125 349.5 C582 335.5 596.125 323 619.29 332 C619.29 323 657.71 323 657.71 332 C680.875 323 695 335.5 680.875 346.5 C695 360.5 680.875 373 663.36 364 C657.71 373 619.29 373 624.94 364 C596.125 373 582 360.5 596.125 349.5 Z" stroke="none" clip-path="url(#clipPath2)"/>
    </g>
    <g text-rendering="geometricPrecision" stroke-miterlimit="1.45" shape-rendering="geometricPrecision" transform="matrix(1,0,0,1,-140,-179)" stroke-linecap="butt">
      <path fill="none" d="M596.125 349.5 C582 335.5 596.125 323 619.29 332 C619.29 323 657.71 323 657.71 332 C680.875 323 695 335.5 680.875 346.5 C695 360.5 680.875 373 663.36 364 C657.71 373 619.29 373 624.94 364 C596.125 373 582 360.5 596.125 349.5 Z" clip-path="url(#clipPath2)"/>
      <text x="604.4863" xml:space="preserve" y="352.1543" clip-path="url(#clipPath2)" font-family="sans-serif" stroke="none">upnp / dnla</text>
    </g>
    <g fill="url(#linearGradient10)" text-rendering="geometricPrecision" shape-rendering="geometricPrecision" transform="matrix(1,0,0,1,-140,-179)" stroke="url(#linearGradient10)">
      <ellipse rx="56.5" ry="20" clip-path="url(#clipPath2)" cx="495.5" cy="244" stroke="none"/>
    </g>
    <g text-rendering="geometricPrecision" stroke-miterlimit="1.45" shape-rendering="geometricPrecision" transform="matrix(1,0,0,1,-140,-179)" stroke-linecap="butt">
      <ellipse rx="56.5" fill="none" ry="20" clip-path="url(#clipPath2)" cx="495.5" cy="244"/>
      <text x="456.7227" xml:space="preserve" y="248.1543" clip-path="url(#clipPath2)" font-family="sans-serif" stroke="none">silver:bubble</text>
    </g>
    <g fill="url(#linearGradient11)" text-rendering="geometricPrecision" shape-rendering="geometricPrecision" transform="matrix(1,0,0,1,-140,-179)" stroke="url(#linearGradient11)">
      <ellipse rx="56.5" ry="20" clip-path="url(#clipPath2)" cx="638.5" cy="596" stroke="none"/>
    </g>
    <g text-rendering="geometricPrecision" stroke-miterlimit="1.45" shape-rendering="geometricPrecision" transform="matrix(1,0,0,1,-140,-179)" stroke-linecap="butt">
      <ellipse rx="56.5" fill="none" ry="20" clip-path="url(#clipPath2)" cx="638.5" cy="596"/>
      <text x="587.8076" xml:space="preserve" y="600.1543" clip-path="url(#clipPath2)" font-family="sans-serif" stroke="none">ushare / pi2:pleg</text>
    </g>
    <g fill="rgb(255,204,0)" text-rendering="geometricPrecision" shape-rendering="geometricPrecision" transform="matrix(1,0,0,1,-140,-179)" stroke="rgb(255,204,0)">
      <rect x="667" width="161" height="30" y="546" clip-path="url(#clipPath2)" stroke="none"/>
    </g>
    <g text-rendering="geometricPrecision" stroke-miterlimit="1.45" shape-rendering="geometricPrecision" transform="matrix(1,0,0,1,-140,-179)" stroke-linecap="butt">
      <rect fill="none" x="667" width="161" height="30" y="546" clip-path="url(#clipPath2)"/>
      <text x="673.2822" xml:space="preserve" y="565.1543" clip-path="url(#clipPath2)" font-family="sans-serif" stroke="none">ushare-example-for-pleg</text>
    </g>
    <g fill="url(#linearGradient12)" text-rendering="geometricPrecision" shape-rendering="geometricPrecision" transform="matrix(1,0,0,1,-140,-179)" stroke="url(#linearGradient12)">
      <ellipse rx="56.5" ry="20" clip-path="url(#clipPath2)" cx="435" cy="348" stroke="none"/>
    </g>
    <g text-rendering="geometricPrecision" stroke-miterlimit="1.45" shape-rendering="geometricPrecision" transform="matrix(1,0,0,1,-140,-179)" stroke-linecap="butt">
      <ellipse rx="56.5" fill="none" ry="20" clip-path="url(#clipPath2)" cx="435" cy="348"/>
      <text x="380.0684" xml:space="preserve" y="352.1543" clip-path="url(#clipPath2)" font-family="sans-serif" stroke="none">anthrax:gmrender</text>
    </g>
    <g fill="url(#linearGradient13)" text-rendering="geometricPrecision" shape-rendering="geometricPrecision" transform="matrix(1,0,0,1,-140,-179)" stroke="url(#linearGradient13)">
      <ellipse rx="61.5" ry="20" clip-path="url(#clipPath2)" cx="566.5" cy="423" stroke="none"/>
    </g>
    <g text-rendering="geometricPrecision" stroke-miterlimit="1.45" shape-rendering="geometricPrecision" transform="matrix(1,0,0,1,-140,-179)" stroke-linecap="butt">
      <ellipse rx="61.5" fill="none" ry="20" clip-path="url(#clipPath2)" cx="566.5" cy="423"/>
      <text x="510.5811" xml:space="preserve" y="427.1543" clip-path="url(#clipPath2)" font-family="sans-serif" stroke="none">pi2:gmrender-mkII</text>
    </g>
    <g fill="rgb(255,204,0)" text-rendering="geometricPrecision" shape-rendering="geometricPrecision" transform="matrix(1,0,0,1,-140,-179)" stroke="rgb(255,204,0)">
      <rect x="913" width="134" height="30" y="229" clip-path="url(#clipPath2)" stroke="none"/>
    </g>
    <g text-rendering="geometricPrecision" stroke-miterlimit="1.45" shape-rendering="geometricPrecision" transform="matrix(1,0,0,1,-140,-179)" stroke-linecap="butt">
      <rect fill="none" x="913" width="134" height="30" y="229" clip-path="url(#clipPath2)"/>
      <text x="922.1357" xml:space="preserve" y="248.1543" clip-path="url(#clipPath2)" font-family="sans-serif" stroke="none">gmrender into pleg</text>
    </g>
    <g fill="rgb(255,204,0)" text-rendering="geometricPrecision" shape-rendering="geometricPrecision" transform="matrix(1,0,0,1,-140,-179)" stroke="rgb(255,204,0)">
      <rect x="270.5" width="80" height="30" y="403" clip-path="url(#clipPath2)" stroke="none"/>
    </g>
    <g text-rendering="geometricPrecision" stroke-miterlimit="1.45" shape-rendering="geometricPrecision" transform="matrix(1,0,0,1,-140,-179)" stroke-linecap="butt">
      <rect fill="none" x="270.5" width="80" height="30" y="403" clip-path="url(#clipPath2)"/>
      <text x="275.1914" xml:space="preserve" y="422.1543" clip-path="url(#clipPath2)" font-family="sans-serif" stroke="none">pleg:udpsrc</text>
    </g>
    <g fill="url(#linearGradient14)" text-rendering="geometricPrecision" shape-rendering="geometricPrecision" transform="matrix(1,0,0,1,-140,-179)" stroke="url(#linearGradient14)">
      <ellipse rx="30" ry="20" clip-path="url(#clipPath2)" cx="372.25" cy="683.5" stroke="none"/>
    </g>
    <g text-rendering="geometricPrecision" stroke-miterlimit="1.45" shape-rendering="geometricPrecision" transform="matrix(1,0,0,1,-140,-179)" stroke-linecap="butt">
      <ellipse rx="30" fill="none" ry="20" clip-path="url(#clipPath2)" cx="372.25" cy="683.5"/>
      <text x="347.96" xml:space="preserve" y="687.6543" clip-path="url(#clipPath2)" font-family="sans-serif" stroke="none">pi0:pleg</text>
    </g>
    <g fill="rgb(255,204,0)" text-rendering="geometricPrecision" shape-rendering="geometricPrecision" transform="matrix(1,0,0,1,-140,-179)" stroke="rgb(255,204,0)">
      <rect x="651" width="227" height="93" y="680.5" clip-path="url(#clipPath2)" stroke="none"/>
    </g>
    <g text-rendering="geometricPrecision" stroke-miterlimit="1.45" shape-rendering="geometricPrecision" transform="matrix(1,0,0,1,-140,-179)" stroke-linecap="butt">
      <rect fill="none" x="651" width="227" height="93" y="680.5" clip-path="url(#clipPath2)"/>
      <text x="708.9531" xml:space="preserve" y="710.2012" clip-path="url(#clipPath2)" font-family="sans-serif" stroke="none">1 - silver-pi2-noise</text>
      <text x="688.3691" xml:space="preserve" y="724.1699" clip-path="url(#clipPath2)" font-family="sans-serif" stroke="none">2 - anthrax-mirror-noisier</text>
      <text x="716.2129" xml:space="preserve" y="738.1387" clip-path="url(#clipPath2)" font-family="sans-serif" stroke="none">3 - reverse-path</text>
      <text x="699.918" xml:space="preserve" y="752.1074" clip-path="url(#clipPath2)" font-family="sans-serif" stroke="none">4 - ambient-facepalm</text>
    </g>
    <g fill="url(#linearGradient15)" text-rendering="geometricPrecision" shape-rendering="geometricPrecision" transform="matrix(1,0,0,1,-140,-179)" stroke="url(#linearGradient15)">
      <ellipse rx="40" ry="20" clip-path="url(#clipPath2)" cx="249" cy="683.5" stroke="none"/>
    </g>
    <g text-rendering="geometricPrecision" stroke-miterlimit="1.45" shape-rendering="geometricPrecision" transform="matrix(1,0,0,1,-140,-179)" stroke-linecap="butt">
      <ellipse rx="40" fill="none" ry="20" clip-path="url(#clipPath2)" cx="249" cy="683.5"/>
      <text x="224.71" xml:space="preserve" y="687.6543" clip-path="url(#clipPath2)" font-family="sans-serif" stroke="none">pi4:pleg</text>
    </g>
    <g fill="url(#linearGradient16)" text-rendering="geometricPrecision" shape-rendering="geometricPrecision" transform="matrix(1,0,0,1,-140,-179)" stroke="url(#linearGradient16)">
      <path d="M219 741.5 C220.8 733.5 277.2 733.5 279 741.5 L279 765.5 C277.2 773.5 220.8 773.5 219 765.5 Z" stroke="none" clip-path="url(#clipPath2)"/>
    </g>
    <g text-rendering="geometricPrecision" stroke-miterlimit="1.45" shape-rendering="geometricPrecision" transform="matrix(1,0,0,1,-140,-179)" stroke-linecap="butt">
      <path fill="none" d="M219 741.5 C220.8 733.5 277.2 733.5 279 741.5 L279 765.5 C277.2 773.5 220.8 773.5 219 765.5 Z" clip-path="url(#clipPath2)"/>
      <path fill="none" d="M279 741.5 C277.2 749.5 220.8 749.5 219 741.5" clip-path="url(#clipPath2)"/>
      <text x="240.2842" xml:space="preserve" y="757.6543" clip-path="url(#clipPath2)" font-family="sans-serif" stroke="none">wd</text>
    </g>
    <g fill="url(#linearGradient17)" text-rendering="geometricPrecision" shape-rendering="geometricPrecision" transform="matrix(1,0,0,1,-140,-179)" stroke="url(#linearGradient17)">
      <path d="M219 618.5 C209 604.5 219 592 235.4 601 C235.4 592 262.6 592 262.6 601 C279 592 289 604.5 279 615.5 C289 629.5 279 642 266.6 633 C262.6 642 235.4 642 239.4 633 C219 642 209 629.5 219 618.5 Z" stroke="none" clip-path="url(#clipPath2)"/>
    </g>
    <g text-rendering="geometricPrecision" stroke-miterlimit="1.45" shape-rendering="geometricPrecision" transform="matrix(1,0,0,1,-140,-179)" stroke-linecap="butt">
      <path fill="none" d="M219 618.5 C209 604.5 219 592 235.4 601 C235.4 592 262.6 592 262.6 601 C279 592 289 604.5 279 615.5 C289 629.5 279 642 266.6 633 C262.6 642 235.4 642 239.4 633 C219 642 209 629.5 219 618.5 Z" clip-path="url(#clipPath2)"/>
      <text x="226.418" xml:space="preserve" y="621.1543" clip-path="url(#clipPath2)" font-family="sans-serif" stroke="none">HackRF</text>
    </g>
    <g fill="url(#linearGradient18)" text-rendering="geometricPrecision" shape-rendering="geometricPrecision" transform="matrix(1,0,0,1,-140,-179)" stroke="url(#linearGradient18)">
      <path d="M342.25 610 C332.25 596 342.25 583.5 358.65 592.5 C358.65 583.5 385.85 583.5 385.85 592.5 C402.25 583.5 412.25 596 402.25 607 C412.25 621 402.25 633.5 389.85 624.5 C385.85 633.5 358.65 633.5 362.65 624.5 C342.25 633.5 332.25 621 342.25 610 Z" stroke="none" clip-path="url(#clipPath2)"/>
    </g>
    <g text-rendering="geometricPrecision" stroke-miterlimit="1.45" shape-rendering="geometricPrecision" transform="matrix(1,0,0,1,-140,-179)" stroke-linecap="butt">
      <path fill="none" d="M342.25 610 C332.25 596 342.25 583.5 358.65 592.5 C358.65 583.5 385.85 583.5 385.85 592.5 C402.25 583.5 412.25 596 402.25 607 C412.25 621 402.25 633.5 389.85 624.5 C385.85 633.5 358.65 633.5 362.65 624.5 C342.25 633.5 332.25 621 342.25 610 Z" clip-path="url(#clipPath2)"/>
      <text x="356.5732" xml:space="preserve" y="612.6543" clip-path="url(#clipPath2)" font-family="sans-serif" stroke="none">1 bar</text>
    </g>
    <g fill="url(#linearGradient19)" text-rendering="geometricPrecision" shape-rendering="geometricPrecision" transform="matrix(1,0,0,1,-140,-179)" stroke="url(#linearGradient19)">
      <ellipse rx="40" ry="20" clip-path="url(#clipPath2)" cx="495.5" cy="683.5" stroke="none"/>
    </g>
    <g text-rendering="geometricPrecision" stroke-miterlimit="1.45" shape-rendering="geometricPrecision" transform="matrix(1,0,0,1,-140,-179)" stroke-linecap="butt">
      <ellipse rx="40" fill="none" ry="20" clip-path="url(#clipPath2)" cx="495.5" cy="683.5"/>
      <text x="467.3926" xml:space="preserve" y="687.6543" clip-path="url(#clipPath2)" font-family="sans-serif" stroke="none">pi32:pleg</text>
    </g>
    <g fill="url(#linearGradient20)" text-rendering="geometricPrecision" shape-rendering="geometricPrecision" transform="matrix(1,0,0,1,-140,-179)" stroke="url(#linearGradient20)">
      <path d="M455.5 733.5 L535.5 733.5 L535.5 773.5 L455.5 773.5 Z" stroke="none" clip-path="url(#clipPath2)"/>
    </g>
    <g text-rendering="geometricPrecision" stroke-miterlimit="1.45" shape-rendering="geometricPrecision" transform="matrix(1,0,0,1,-140,-179)" stroke-linecap="butt">
      <path fill="none" d="M455.5 733.5 L535.5 733.5 L535.5 773.5 L455.5 773.5 Z" clip-path="url(#clipPath2)"/>
      <text x="472.0244" xml:space="preserve" y="757.6543" clip-path="url(#clipPath2)" font-family="sans-serif" stroke="none">monitor</text>
    </g>
    <g text-rendering="geometricPrecision" stroke-miterlimit="1.45" shape-rendering="geometricPrecision" transform="matrix(1,0,0,1,-140,-179)" stroke-linecap="butt">
      <path fill="none" d="M848 577.9873 L848 500.002" clip-path="url(#clipPath2)"/>
      <path d="M848 492.002 L843 504.002 L848 501.002 L853 504.002 Z" clip-path="url(#clipPath2)" stroke="none"/>
      <text x="846.875" xml:space="preserve" y="531.6621" clip-path="url(#clipPath2)" font-family="sans-serif" stroke="none">gstreamer</text>
      <path fill="none" d="M848 451.9893 L848 375.9803" clip-path="url(#clipPath2)"/>
      <path d="M848 367.9803 L843 379.9803 L848 376.9803 L853 379.9803 Z" clip-path="url(#clipPath2)" stroke="none"/>
      <text x="846.4004" xml:space="preserve" y="414.1543" clip-path="url(#clipPath2)" font-family="sans-serif" stroke="none">Optical (1)</text>
      <path fill="none" d="M797.5176 480.9685 L761.1924 487.4219 L693.9141 498.4375 L641.1318 505.0469 L597.8125 507.25 L578.1285 506.6992 L558.9229 505.0469 L519.4297 498.4375 L474.2998 487.4219 L473.6462 487.2412" clip-path="url(#clipPath2)"/>
      <path d="M465.9353 485.1101 L476.1697 493.1261 L474.61 487.5076 L478.8336 483.4875 Z" clip-path="url(#clipPath2)" stroke="none"/>
      <text x="578.9788" xml:space="preserve" y="492.4103" clip-path="url(#clipPath2)" font-family="sans-serif" stroke="none">(2)</text>
      <path fill="none" d="M381.661 490.6931 L359.0312 501.25 L337.9219 508.5625 L328.5596 510.3906 L319.625 511 L310.8428 510.3906 L301.9375 508.5625 L282.6562 501.25 L268.8384 493.9528" clip-path="url(#clipPath2)"/>
      <path d="M261.7642 490.217 L270.0406 500.2421 L269.7226 494.4198 L274.7103 491.3994 Z" clip-path="url(#clipPath2)" stroke="none"/>
      <text x="316.8583" xml:space="preserve" y="490.5696" clip-path="url(#clipPath2)" font-family="sans-serif" stroke="none">(2)</text>
      <path fill="none" d="M230.5 451.9893 L230.5 375.9803" clip-path="url(#clipPath2)"/>
      <path d="M230.5 367.9803 L225.5 379.9803 L230.5 376.9803 L235.5 379.9803 Z" clip-path="url(#clipPath2)" stroke="none"/>
      <text x="252.001" xml:space="preserve" y="414.1543" clip-path="url(#clipPath2)" font-family="sans-serif" stroke="none">(2)</text>
      <path fill="none" d="M869.6011 579.7856 L897.875 558.5625 L917.4688 542.4922 L933.5 527.5 L945.9688 513.0703 L954.875 498.6875 L960.2188 483.8359 L962 468 L960.2188 450.6641 L954.875 431.3125 L945.9688 409.4297 L933.5 384.5 L897.875 323.4375 L865.7698 272.3026" clip-path="url(#clipPath2)"/>
      <path d="M861.5159 265.5273 L863.6622 278.3489 L866.3016 273.1495 L872.1313 273.0315 Z" clip-path="url(#clipPath2)" stroke="none"/>
      <path fill="none" d="M822.7209 262.6645 L815.8438 267.7422 L792.875 287.5 L784.8359 296.7197 L779.0938 305.9453 L775.6484 315.5107 L774.5 325.75 L775.6484 336.9971 L779.0938 349.5859 L784.8359 363.8506 L792.875 380.125 L815.8438 420.0391 L831.6844 445.6358" clip-path="url(#clipPath2)"/>
      <path d="M835.8943 452.4385 L833.8311 439.6033 L831.1581 444.7855 L825.3278 444.8657 Z" clip-path="url(#clipPath2)" stroke="none"/>
      <path fill="none" d="M694.9924 244 L796.1821 244" clip-path="url(#clipPath2)"/>
      <path d="M804.1821 244 L792.1821 239 L795.1821 244 L792.1821 249 Z" clip-path="url(#clipPath2)" stroke="none"/>
      <path fill="none" d="M638.5 263.9824 L638.5 317.2316" clip-path="url(#clipPath2)"/>
      <path d="M638.5 325.2316 L643.5 313.2316 L638.5 316.2316 L633.5 313.2316 Z" clip-path="url(#clipPath2)" stroke="none"/>
      <path fill="none" d="M669.5209 366.3608 L812.1171 450.7614" clip-path="url(#clipPath2)"/>
      <path d="M819.0015 454.8362 L811.2216 444.4212 L811.2565 450.252 L806.1281 453.0268 Z" clip-path="url(#clipPath2)" stroke="none"/>
      <text x="741.8225" xml:space="preserve" y="453.2009" clip-path="url(#clipPath2)" font-family="sans-serif" stroke="none">(1)</text>
      <path fill="none" d="M520.2527 262.002 L607.6935 325.5953" clip-path="url(#clipPath2)"/>
      <path d="M614.1635 330.3007 L607.3995 319.1989 L606.8848 325.0071 L601.5178 327.2863 Z" clip-path="url(#clipPath2)" stroke="none"/>
      <text x="527.4289" xml:space="preserve" y="314.6513" clip-path="url(#clipPath2)" font-family="sans-serif" stroke="none">(1)</text>
      <path fill="none" d="M534.2404 229.4391 L553.1182 222.3438 L598.6016 206.875 L618.0836 201.4609 L636.0811 197.5938 L653.1102 195.2734 L669.6875 194.5 L686.3292 195.2734 L703.5518 197.5938 L721.8715 201.4609 L741.8047 206.875 L788.5771 222.3438 L796.1196 225.0925" clip-path="url(#clipPath2)"/>
      <path d="M803.636 227.8318 L794.0734 219.0251 L795.1801 224.7501 L790.6494 228.4206 Z" clip-path="url(#clipPath2)" stroke="none"/>
      <path fill="none" d="M818.002 596 L702.9888 596" clip-path="url(#clipPath2)"/>
      <path d="M694.9888 596 L706.9888 601 L703.9888 596 L706.9888 591 Z" clip-path="url(#clipPath2)" stroke="none"/>
      <path fill="none" d="M638.5 575.9893 L638.5 378.7377" clip-path="url(#clipPath2)"/>
      <path d="M638.5 370.7377 L633.5 382.7377 L638.5 379.7377 L643.5 382.7377 Z" clip-path="url(#clipPath2)" stroke="none"/>
      <path fill="none" d="M594.7296 348 L499.5059 348" clip-path="url(#clipPath2)"/>
      <path d="M491.5059 348 L503.5059 353 L500.5059 348 L503.5059 343 Z" clip-path="url(#clipPath2)" stroke="none"/>
      <text x="528.251" xml:space="preserve" y="382.1543" clip-path="url(#clipPath2)" font-family="sans-serif" stroke="none">(3)</text>
      <path fill="none" d="M424.1151 367.5986 L413.9297 385.9375 L408.1143 399.5391 L405.1875 411.5 L404.9561 423.2734 L407.2266 436.3125 L409.0333 442.032" clip-path="url(#clipPath2)"/>
      <path d="M411.4431 449.6605 L412.5962 436.7117 L408.7321 441.0785 L403.0607 439.7239 Z" clip-path="url(#clipPath2)" stroke="none"/>
      <text x="422.2995" xml:space="preserve" y="419.3615" clip-path="url(#clipPath2)" font-family="sans-serif" stroke="none">(3)</text>
      <path fill="none" d="M464.6158 466.7268 L469.4688 466.1719 L487.125 463.0879 L501.875 459.125 L515.4531 453.709 L529.5938 446.2656 L531.5121 445.0563" clip-path="url(#clipPath2)"/>
      <path d="M538.2797 440.79 L525.462 442.9597 L530.6662 445.5895 L530.7948 451.4191 Z" clip-path="url(#clipPath2)" stroke="none"/>
      <text x="478.3964" xml:space="preserve" y="438.8761" clip-path="url(#clipPath2)" font-family="sans-serif" stroke="none">(3)</text>
      <path fill="none" d="M614.0925 410.3199 L800.2667 360.7176" clip-path="url(#clipPath2)"/>
      <path d="M807.997 358.658 L795.1143 356.9159 L799.3004 360.975 L797.6888 366.5789 Z" clip-path="url(#clipPath2)" stroke="none"/>
      <text x="635" xml:space="preserve" y="437.686" clip-path="url(#clipPath2)" font-family="sans-serif" stroke="none">(3)</text>
      <path fill="none" d="M249 703.4951 L249 727.4807" clip-path="url(#clipPath2)"/>
      <path d="M249 735.4807 L254 723.4807 L249 726.4807 L244 723.4807 Z" clip-path="url(#clipPath2)" stroke="none"/>
      <path fill="none" d="M249 639.762 L249 655.4677" clip-path="url(#clipPath2)"/>
      <path d="M249 663.4677 L254 651.4677 L249 654.4677 L244 651.4677 Z" clip-path="url(#clipPath2)" stroke="none"/>
      <path fill="none" d="M372.25 631.2417 L372.25 655.5204" clip-path="url(#clipPath2)"/>
      <path d="M372.25 663.5204 L377.25 651.5204 L372.25 654.5204 L367.25 651.5204 Z" clip-path="url(#clipPath2)" stroke="none"/>
      <path fill="none" d="M402.2501 683.5 L447.4772 683.5" clip-path="url(#clipPath2)"/>
      <path d="M455.4772 683.5 L443.4772 678.5 L446.4772 683.5 L443.4772 688.5 Z" clip-path="url(#clipPath2)" stroke="none"/>
      <path fill="none" d="M278.8889 696.7885 L280.9814 697.7188 L306.8516 707.875 L329.499 713.9688 L351.8125 716 L376.6807 713.9688 L406.9922 707.875 L445.6357 697.7188 L453.0624 695.6011" clip-path="url(#clipPath2)"/>
      <path d="M460.7557 693.4073 L447.8446 691.8896 L452.1007 695.8753 L450.5868 701.5063 Z" clip-path="url(#clipPath2)" stroke="none"/>
      <path fill="none" d="M435.1048 492.8138 L443.916 503.8584 L463.0156 529.2109 L476.7012 550.5361 L485.875 570.3125 L491.4395 591.0186 L494.2969 615.1328 L495.3496 645.1338 L495.3904 655.5302" clip-path="url(#clipPath2)"/>
      <path d="M495.4217 663.5301 L500.3746 651.5106 L495.3864 654.5302 L490.3747 651.5498 Z" clip-path="url(#clipPath2)" stroke="none"/>
      <text x="487.001" xml:space="preserve" y="571.9876" clip-path="url(#clipPath2)" font-family="sans-serif" stroke="none">(4)</text>
      <path fill="none" d="M495.5 703.4951 L495.5 725.5273" clip-path="url(#clipPath2)"/>
      <path d="M495.5 733.5273 L500.5 721.5273 L495.5 724.5273 L490.5 721.5273 Z" clip-path="url(#clipPath2)" stroke="none"/>
    </g>
  </g>
</svg>
